# xmcd
#
# Track frame offsets: 
#        182
#        11345
#        19925
#        32960
#        47652
#        58717
#        70752
#        83657
#        97270
#        111495
#        124295
#
# Disc length: 1837 seconds
#
# Revision: 7
# Processed by: cddbd v1.5.2PL0 Copyright (c) Steve Scherf et al.
# Submitted via: ExactAudioCopy v0.95b4
#
DISCID=95072b0b
DTITLE=The Statler Brothers - The Best Of The Statler Bros.
DYEAR=1975
DGENRE=Country
TTITLE0=Bed Of Rose's
TTITLE1=Whatever Happened To Randolph Scott
TTITLE2=Do You Remember These
TTITLE3=Carry Me Back
TTITLE4=Flowers On The Wall
TTITLE5=The Class Of '57
TTITLE6=I'll Go To My Grave Loving You
TTITLE7=Pictures
TTITLE8=Thank You World
TTITLE9=New York City
TTITLE10=Susan When She Tried
EXTD=
EXTT0=
EXTT1=
EXTT2=
EXTT3=
EXTT4=
EXTT5=
EXTT6=
EXTT7=
EXTT8=
EXTT9=
EXTT10=
PLAYORDER=
